<?xml version="1.0" encoding="UTF-8" standalone="no"?><svg xmlns="http://www.w3.org/2000/svg" xmlns:xlink="http://www.w3.org/1999/xlink" fill="#000000" height="52.9" preserveAspectRatio="xMidYMid meet" version="1" viewBox="0.0 5.6 64.0 52.9" width="64" zoomAndPan="magnify">
 <g id="change1_1"><path d="m59.158 53.002l4.842 4.675v0.155h-24.56v-0.155l4.93-4.675c0.526-0.433 0.778-1.12 0.657-1.795v-29.885c0-1.263 0-2.97 0.22-4.43l-16.567 41.538h-0.197l-17.155-38.216-0.723-1.662v25.058a8.79 8.79 0 0 0 0.811 4.896l6.902 9.172v0.155h-18.318v-0.155l6.902-9.194c0.73-1.512 1-3.204 0.81-4.874v-27.694c0.112-1.364-0.295-2.72-1.14-3.788l-4.885-6.403v-0.155h17.528l14.68 32.368 12.927-32.368h17.156v0.155l-4.82 5.428c-0.578 0.427-0.866 1.148-0.745 1.86v38.194a1.78 1.78 0 0 0 0.745 1.795z" fill="#ffffff"/></g>
</svg>