<?xml version="1.0" encoding="UTF-8" standalone="no"?><svg xmlns="http://www.w3.org/2000/svg" xmlns:xlink="http://www.w3.org/1999/xlink" fill="#000000" height="60.1" preserveAspectRatio="xMidYMid meet" version="1" viewBox="1.9 1.9 60.1 60.1" width="60.1" zoomAndPan="magnify"><g fill="#ffffff" id="change1_1"><path d="M 34 18.984375 C 32.898438 18.984375 32 18.089844 32 16.984375 C 32 15.882812 32.898438 14.984375 34 14.984375 C 35.101562 14.984375 36 15.882812 36 16.984375 C 36 18.089844 35.101562 18.984375 34 18.984375 Z M 34 12.984375 C 31.792969 12.984375 30 14.78125 30 16.984375 C 30 19.191406 31.792969 20.984375 34 20.984375 C 36.207031 20.984375 38 19.191406 38 16.984375 C 38 14.78125 36.207031 12.984375 34 12.984375" fill="inherit"/><path d="M 43 30.984375 C 41.34375 30.984375 40 29.640625 40 27.984375 C 40 26.332031 41.34375 24.984375 43 24.984375 C 44.65625 24.984375 46 26.332031 46 27.984375 C 46 29.640625 44.65625 30.984375 43 30.984375 Z M 43 22.984375 C 40.242188 22.984375 38 25.230469 38 27.984375 C 38 30.742188 40.242188 32.984375 43 32.984375 C 45.757812 32.984375 48 30.742188 48 27.984375 C 48 25.230469 45.757812 22.984375 43 22.984375" fill="inherit"/><path d="M 19 30.984375 C 17.34375 30.984375 16 29.640625 16 27.984375 C 16 26.332031 17.34375 24.984375 19 24.984375 C 20.65625 24.984375 22 26.332031 22 27.984375 C 22 29.640625 20.65625 30.984375 19 30.984375 Z M 19 22.984375 C 16.242188 22.984375 14 25.230469 14 27.984375 C 14 30.742188 16.242188 32.984375 19 32.984375 C 21.757812 32.984375 24 30.742188 24 27.984375 C 24 25.230469 21.757812 22.984375 19 22.984375" fill="inherit"/><path d="M 29 39.984375 C 27.898438 39.984375 27 39.089844 27 37.984375 C 27 36.882812 27.898438 35.984375 29 35.984375 C 30.101562 35.984375 31 36.882812 31 37.984375 C 31 39.089844 30.101562 39.984375 29 39.984375 Z M 29 33.984375 C 26.792969 33.984375 25 35.78125 25 37.984375 C 25 40.191406 26.792969 41.984375 29 41.984375 C 31.207031 41.984375 33 40.191406 33 37.984375 C 33 35.78125 31.207031 33.984375 29 33.984375" fill="inherit"/><path d="M 43 45.984375 C 41.898438 45.984375 41 45.089844 41 43.984375 C 41 42.882812 41.898438 41.984375 43 41.984375 C 44.101562 41.984375 45 42.882812 45 43.984375 C 45 45.089844 44.101562 45.984375 43 45.984375 Z M 43 39.984375 C 40.792969 39.984375 39 41.78125 39 43.984375 C 39 46.191406 40.792969 47.984375 43 47.984375 C 45.207031 47.984375 47 46.191406 47 43.984375 C 47 41.78125 45.207031 39.984375 43 39.984375" fill="inherit"/><path d="M 37.742188 54.25 C 36.996094 51.753906 34.699219 49.984375 32 49.984375 C 29.304688 49.984375 27.007812 51.753906 26.257812 54.246094 C 22.722656 53.339844 19.46875 51.613281 16.734375 49.171875 C 18.121094 48.277344 19 46.722656 19 44.984375 C 19 42.230469 16.757812 39.984375 14 39.984375 C 12.839844 39.984375 11.753906 40.386719 10.882812 41.085938 C 9.636719 38.21875 9 35.167969 9 31.984375 C 9 26.101562 11.28125 20.441406 15.300781 16.191406 C 16.097656 16.707031 17.027344 16.984375 18 16.984375 C 20.757812 16.984375 23 14.742188 23 11.984375 C 23 11.617188 22.957031 11.25 22.871094 10.890625 C 25.734375 9.644531 28.851562 8.984375 32 8.984375 C 44.378906 8.984375 54.5 18.816406 54.976562 31.082031 C 52.15625 31.566406 50 34.027344 50 36.984375 C 50 39.015625 51.035156 40.882812 52.699219 41.988281 C 49.753906 48.078125 44.265625 52.574219 37.742188 54.25 Z M 28.234375 54.671875 C 28.78125 53.09375 30.261719 51.984375 32 51.984375 C 33.738281 51.984375 35.21875 53.09375 35.765625 54.671875 C 33.285156 55.082031 30.71875 55.082031 28.234375 54.671875 Z M 15.246094 47.710938 C 13.890625 46.265625 12.742188 44.675781 11.816406 42.960938 C 12.375 42.351562 13.148438 41.984375 14 41.984375 C 15.65625 41.984375 17 43.332031 17 44.984375 C 17 46.183594 16.300781 47.234375 15.246094 47.710938 Z M 20.980469 11.8125 C 20.984375 11.871094 21 11.929688 21 11.984375 C 21 13.640625 19.65625 14.984375 18 14.984375 C 17.582031 14.984375 17.175781 14.894531 16.804688 14.734375 C 18.113281 13.585938 19.515625 12.605469 20.980469 11.8125 Z M 54.832031 34.734375 C 54.816406 34.859375 54.800781 34.988281 54.78125 35.113281 C 54.710938 35.636719 54.628906 36.160156 54.523438 36.675781 C 54.519531 36.679688 54.519531 36.683594 54.519531 36.6875 C 54.410156 37.207031 54.277344 37.71875 54.132812 38.230469 C 54.097656 38.355469 54.0625 38.480469 54.027344 38.601562 C 53.875 39.109375 53.707031 39.609375 53.519531 40.105469 C 53.519531 40.109375 53.515625 40.117188 53.515625 40.121094 C 52.574219 39.367188 52 38.21875 52 36.984375 C 52 35.136719 53.261719 33.574219 54.972656 33.121094 C 54.972656 33.128906 54.972656 33.132812 54.96875 33.140625 C 54.945312 33.675781 54.894531 34.207031 54.832031 34.734375 Z M 57 31.984375 C 57 18.203125 45.785156 6.984375 32 6.984375 C 28.273438 6.984375 24.582031 7.835938 21.253906 9.429688 C 21.242188 9.433594 21.234375 9.433594 21.222656 9.4375 C 21.207031 9.445312 21.199219 9.457031 21.183594 9.464844 C 20.882812 9.609375 20.582031 9.753906 20.285156 9.910156 C 18.519531 10.835938 16.832031 12.011719 15.269531 13.414062 C 15.011719 13.648438 14.761719 13.890625 14.511719 14.132812 C 14.507812 14.136719 14.503906 14.140625 14.496094 14.144531 C 14.492188 14.148438 14.492188 14.152344 14.488281 14.15625 C 9.71875 18.84375 7 25.28125 7 31.984375 C 7 35.980469 7.917969 39.796875 9.726562 43.316406 C 9.730469 43.328125 9.738281 43.335938 9.742188 43.34375 C 9.746094 43.347656 9.75 43.351562 9.75 43.355469 C 10.902344 45.632812 12.410156 47.722656 14.238281 49.570312 C 17.695312 53.066406 22.046875 55.445312 26.824219 56.445312 C 28.515625 56.804688 30.257812 56.988281 32 56.988281 C 33.742188 56.988281 35.484375 56.804688 37.175781 56.445312 C 45.050781 54.789062 51.683594 49.382812 54.914062 41.976562 C 56.296875 38.828125 57 35.464844 57 31.984375" fill="inherit"/><path d="M 5.292969 6.695312 C 5.488281 6.890625 5.742188 6.984375 6 6.984375 C 6.257812 6.984375 6.511719 6.890625 6.707031 6.695312 C 7.097656 6.300781 7.097656 5.667969 6.707031 5.28125 L 5.914062 4.484375 L 6.707031 3.695312 C 7.097656 3.300781 7.097656 2.667969 6.707031 2.28125 C 6.316406 1.890625 5.683594 1.890625 5.292969 2.28125 L 4.5 3.074219 L 3.707031 2.28125 C 3.316406 1.890625 2.683594 1.890625 2.292969 2.28125 C 1.902344 2.667969 1.902344 3.300781 2.292969 3.695312 L 3.085938 4.484375 L 2.292969 5.28125 C 1.902344 5.667969 1.902344 6.300781 2.292969 6.695312 C 2.488281 6.890625 2.742188 6.984375 3 6.984375 C 3.257812 6.984375 3.511719 6.890625 3.707031 6.695312 L 4.5 5.902344 L 5.292969 6.695312" fill="inherit"/><path d="M 12 7.984375 C 12 8.539062 12.449219 8.984375 13 8.984375 C 13.550781 8.984375 14 8.539062 14 7.984375 C 14.550781 7.984375 15 7.539062 15 6.984375 C 15 6.433594 14.550781 5.984375 14 5.984375 C 14 5.433594 13.550781 4.984375 13 4.984375 C 12.449219 4.984375 12 5.433594 12 5.984375 C 11.449219 5.984375 11 6.433594 11 6.984375 C 11 7.539062 11.449219 7.984375 12 7.984375" fill="inherit"/><path d="M 58 58.988281 C 57.449219 58.988281 57 58.539062 57 57.988281 C 57 57.433594 57.449219 56.988281 58 56.988281 C 58.550781 56.988281 59 57.433594 59 57.988281 C 59 58.539062 58.550781 58.988281 58 58.988281 Z M 61 56.988281 L 60.816406 56.988281 C 60.515625 56.140625 59.847656 55.472656 59 55.171875 L 59 52.984375 C 59 52.433594 58.550781 51.984375 58 51.984375 C 57.449219 51.984375 57 52.433594 57 52.984375 L 57 55.171875 C 56.152344 55.472656 55.484375 56.140625 55.183594 56.988281 L 54 56.988281 C 53.449219 56.988281 53 57.433594 53 57.988281 C 53 58.539062 53.449219 58.988281 54 58.988281 L 55.183594 58.988281 C 55.484375 59.832031 56.152344 60.5 57 60.800781 L 57 60.988281 C 57 61.539062 57.449219 61.988281 58 61.988281 C 58.550781 61.988281 59 61.539062 59 60.988281 L 59 60.800781 C 59.847656 60.5 60.515625 59.832031 60.816406 58.988281 L 61 58.988281 C 61.550781 58.988281 62 58.539062 62 57.988281 C 62 57.433594 61.550781 56.988281 61 56.988281" fill="inherit"/><path d="M 7 15.984375 C 7 16.539062 7.449219 16.984375 8 16.984375 C 8.550781 16.984375 9 16.539062 9 15.984375 L 9 14.984375 C 9.550781 14.984375 10 14.539062 10 13.984375 C 10 13.433594 9.550781 12.984375 9 12.984375 L 9 11.984375 C 9 11.433594 8.550781 10.984375 8 10.984375 C 7.449219 10.984375 7 11.433594 7 11.984375 L 7 12.984375 L 6 12.984375 C 5.449219 12.984375 5 13.433594 5 13.984375 C 5 14.539062 5.449219 14.984375 6 14.984375 L 7 14.984375 L 7 15.984375" fill="inherit"/></g></svg>