<?xml version="1.0" encoding="UTF-8" standalone="no"?><svg xmlns="http://www.w3.org/2000/svg" xmlns:xlink="http://www.w3.org/1999/xlink" fill="#ffffff" height="448.2" preserveAspectRatio="xMidYMid meet" version="1" viewBox="31.9 31.4 449.1 448.2" width="449.1" zoomAndPan="magnify"><g id="change1_1"><path d="M479.498,37.454c-0.006-0.114-0.01-0.195-0.013-0.242c-0.004-0.075-0.026-0.144-0.033-0.217 c-0.016-0.15-0.039-0.296-0.068-0.442c-0.02-0.101-0.029-0.204-0.054-0.302c-0.019-0.075-0.051-0.144-0.074-0.217 c-0.04-0.13-0.085-0.256-0.136-0.382c-0.039-0.097-0.073-0.196-0.118-0.29c-0.038-0.079-0.083-0.151-0.125-0.227 c-0.057-0.105-0.115-0.206-0.179-0.306c-0.058-0.091-0.114-0.181-0.178-0.267c-0.057-0.077-0.119-0.148-0.179-0.222 c-0.068-0.082-0.135-0.163-0.208-0.241c-0.074-0.079-0.15-0.155-0.229-0.229c-0.077-0.072-0.157-0.139-0.239-0.206 c-0.074-0.061-0.146-0.124-0.224-0.181c-0.086-0.063-0.176-0.119-0.266-0.177c-0.101-0.065-0.204-0.124-0.31-0.181 c-0.075-0.041-0.146-0.086-0.223-0.122c-0.093-0.045-0.192-0.078-0.288-0.117c-0.129-0.052-0.259-0.098-0.393-0.139 c-0.07-0.021-0.135-0.052-0.206-0.07c-0.099-0.026-0.203-0.035-0.304-0.055c-0.146-0.029-0.291-0.052-0.441-0.068 c-0.075-0.008-0.145-0.029-0.221-0.034c-0.024-0.001-0.222-0.012-0.552-0.027c-4.435-0.202-33.865-1.059-74.628,9.187 c-0.548,0.137-1.096,0.275-1.648,0.416c-0.629,0.162-1.26,0.326-1.895,0.493c-0.882,0.232-1.769,0.47-2.661,0.712 c-0.429,0.117-0.856,0.231-1.288,0.35c-1.393,0.385-2.794,0.778-4.208,1.189c-0.003,0.001-0.007,0.003-0.01,0.004 c-47.51,13.808-115.543,45.643-171.206,118.891c-17.372-2.357-48.802-3.109-82.69,13.051 C89.89,197.821,55.806,240.284,32.7,302.995c-0.779,2.116-0.046,4.491,1.791,5.8c0.871,0.62,1.887,0.928,2.901,0.928 c1.125,0,2.248-0.379,3.167-1.129c0.702-0.574,68.646-55.466,118.72-40.33c-2.212,5.707-4.37,11.542-6.44,17.485l-2.802-2.802 c-1.953-1.953-5.118-1.953-7.071,0l-14.646,14.646c-1.953,1.952-1.953,5.118,0,7.07l11.912,11.912l-19.162,19.163 c-1.953,1.952-1.953,5.118,0,7.07l48.122,48.122c0.977,0.977,2.256,1.465,3.536,1.465c1.279,0,2.559-0.488,3.536-1.465 l19.163-19.162l11.905,11.905c0.977,0.977,2.256,1.465,3.536,1.465s2.559-0.488,3.536-1.465l14.646-14.646 c1.953-1.952,1.953-5.118,0-7.07l-2.796-2.796c5.952-2.073,11.786-4.231,17.485-6.44c15.134,50.072-39.757,118.017-40.331,118.719 c-1.427,1.745-1.51,4.23-0.202,6.067c0.959,1.346,2.49,2.099,4.073,2.099c0.577,0,1.161-0.1,1.727-0.309 c62.711-23.105,105.175-57.188,126.212-101.304c16.161-33.889,15.408-65.319,13.051-82.69 c73.254-55.666,105.089-123.704,118.897-171.215C481.065,76.249,479.68,40.982,479.498,37.454z M48.44,290.392 c21.832-51.384,52.014-86.53,89.869-104.581c28.299-13.495,54.739-14.338,71.564-12.791 c-18.148,25.494-33.885,54.342-46.877,85.931C121.875,245.914,72.36,274.081,48.44,290.392z M172.727,380.324l-41.051-41.051 l15.627-15.628l41.052,41.052L172.727,380.324z M210.866,373.067l-11.903-11.903c-0.001-0.001-0.001-0.002-0.002-0.003 s-0.002-0.001-0.003-0.002l-48.116-48.116c-0.002-0.002-0.003-0.004-0.004-0.005s-0.004-0.003-0.005-0.004l-11.907-11.907 l7.574-7.574l71.939,71.939L210.866,373.067z M326.189,373.69c-18.052,37.855-53.197,68.037-104.582,89.868 c16.312-23.92,44.476-73.434,31.442-114.554c31.59-12.992,60.438-28.73,85.932-46.878 C340.529,318.952,339.685,345.391,326.189,373.69z M339.897,289.098c-27.614,20.63-59.583,38.274-95.018,52.442 c-8.497,3.396-17.408,6.66-26.509,9.741l-57.65-57.65c3.073-9.081,6.337-17.993,9.74-26.51 c14.168-35.434,31.812-67.403,52.442-95.018c52.297-70.004,116.23-101.711,162.465-116.057 c3.59,17.389,12.066,33.141,24.756,45.832c12.69,12.689,28.443,21.165,45.832,24.756 C441.61,172.87,409.901,236.803,339.897,289.098z M469.596,43.147c-0.001,0.245-0.002,0.501-0.004,0.761 c-0.001,0.185-0.002,0.367-0.004,0.56c-0.004,0.443-0.01,0.904-0.019,1.388c-0.002,0.139-0.006,0.29-0.009,0.432 c-0.008,0.385-0.016,0.778-0.026,1.187c-0.005,0.205-0.011,0.417-0.017,0.628c-0.011,0.383-0.023,0.776-0.037,1.178 c-0.007,0.211-0.014,0.421-0.022,0.638c-0.021,0.582-0.045,1.18-0.073,1.8c-0.003,0.074-0.007,0.149-0.01,0.224 c-0.028,0.62-0.061,1.261-0.096,1.917c-0.012,0.217-0.025,0.44-0.037,0.66c-0.029,0.516-0.06,1.043-0.094,1.579 c-0.015,0.237-0.029,0.472-0.045,0.713c-0.043,0.659-0.09,1.333-0.14,2.021c-0.008,0.111-0.015,0.216-0.023,0.327 c-0.059,0.793-0.124,1.608-0.194,2.439c-0.02,0.234-0.041,0.475-0.062,0.712c-0.054,0.628-0.111,1.265-0.172,1.913 c-0.026,0.275-0.052,0.551-0.078,0.829c-0.07,0.727-0.144,1.466-0.223,2.217c-0.018,0.172-0.034,0.339-0.053,0.512 c-0.098,0.923-0.203,1.866-0.314,2.824c-0.027,0.234-0.057,0.474-0.085,0.71c-0.088,0.743-0.18,1.495-0.277,2.258 c-0.039,0.308-0.079,0.617-0.119,0.929c-0.102,0.783-0.208,1.578-0.319,2.381c-0.033,0.238-0.064,0.473-0.098,0.713 c-0.146,1.04-0.3,2.096-0.462,3.168c-0.031,0.205-0.065,0.415-0.096,0.622c-0.134,0.876-0.274,1.761-0.419,2.657 c-0.053,0.328-0.108,0.659-0.163,0.99c-0.141,0.852-0.288,1.713-0.439,2.582c-0.049,0.284-0.097,0.565-0.148,0.85 c-0.204,1.153-0.417,2.319-0.64,3.501c-0.021,0.113-0.045,0.229-0.066,0.343c-0.201,1.059-0.412,2.131-0.629,3.212 c-0.067,0.332-0.135,0.666-0.204,0.999c-0.19,0.928-0.386,1.865-0.588,2.809c-0.067,0.315-0.133,0.628-0.202,0.944 c-0.539,2.482-1.122,5.016-1.75,7.596c-0.08,0.33-0.163,0.662-0.245,0.994c-0.247,1.001-0.501,2.009-0.762,3.024 c-0.088,0.341-0.175,0.681-0.264,1.024c-0.339,1.3-0.687,2.609-1.05,3.93c-0.003,0.011-0.006,0.022-0.009,0.033 c-0.013,0.047-0.027,0.094-0.04,0.141c-15.788-3.1-30.089-10.725-41.577-22.212c-11.488-11.488-19.111-25.787-22.21-41.575 c1.419-0.391,2.826-0.766,4.221-1.13c0.229-0.06,0.456-0.118,0.683-0.176c1.223-0.316,2.437-0.622,3.64-0.918 c0.116-0.028,0.232-0.058,0.347-0.086c31.459-7.683,55.965-8.537,65.721-8.515c0,0.057,0,0.109,0.001,0.167 C469.597,42.759,469.596,42.952,469.596,43.147z" fill="inherit"/><path d="M330.253,136.942c-24.706,0-44.806,20.1-44.806,44.806s20.1,44.806,44.806,44.806s44.806-20.1,44.806-44.806 S354.959,136.942,330.253,136.942z M330.253,216.554c-19.192,0-34.806-15.614-34.806-34.806s15.613-34.806,34.806-34.806 s34.806,15.614,34.806,34.806S349.445,216.554,330.253,216.554z" fill="inherit"/><path d="M133.139,378.861c-1.952-1.953-5.117-1.953-7.071,0L63.3,441.627c-1.953,1.952-1.953,5.118,0,7.07 c0.977,0.977,2.256,1.465,3.536,1.465c1.279,0,2.559-0.488,3.536-1.465l62.767-62.766 C135.091,383.979,135.091,380.813,133.139,378.861z" fill="inherit"/><path d="M157.222,402.944c-1.953-1.953-5.118-1.953-7.071,0l-40.986,40.987c-1.953,1.952-1.953,5.118,0,7.07 c0.977,0.977,2.256,1.465,3.536,1.465s2.559-0.488,3.536-1.465l40.986-40.987C159.175,408.063,159.175,404.896,157.222,402.944z" fill="inherit"/><path d="M201.422,406.915c-1.953-1.953-5.118-1.953-7.071,0l-42.955,42.955c-1.953,1.952-1.953,5.118,0,7.07 c0.977,0.977,2.256,1.465,3.536,1.465s2.559-0.488,3.536-1.465l42.955-42.955C203.375,412.033,203.375,408.867,201.422,406.915z" fill="inherit"/><path d="M105.085,317.648c1.953-1.952,1.953-5.118,0-7.07c-1.953-1.953-5.118-1.953-7.071,0l-42.955,42.955 c-1.953,1.952-1.953,5.118,0,7.07c0.977,0.977,2.256,1.465,3.536,1.465s2.559-0.488,3.536-1.465L105.085,317.648z" fill="inherit"/><path d="M68.068,402.833l40.985-40.986c1.953-1.952,1.953-5.118,0-7.07c-1.953-1.953-5.118-1.953-7.071,0l-40.985,40.986 c-1.953,1.952-1.953,5.118,0,7.07c0.977,0.977,2.256,1.465,3.536,1.465S67.092,403.81,68.068,402.833z" fill="inherit"/></g></svg>