<?xml version="1.0" encoding="UTF-8" standalone="no"?><svg xmlns="http://www.w3.org/2000/svg" xmlns:xlink="http://www.w3.org/1999/xlink" clip-rule="evenodd" fill="#000000" fill-rule="evenodd" height="19.8" preserveAspectRatio="xMidYMid meet" stroke-linejoin="round" stroke-miterlimit="2" version="1" viewBox="33.1 90.4 134.6 19.8" width="134.6" zoomAndPan="magnify"><g><g><path d="M844.947 0H1044.9470000000001V200H844.947z" fill="none" transform="translate(-844.508 .371)"/><g><g id="change1_1"><path d="M373.59,954.118C373.59,947.311 369.067,941.793 363.487,941.793C337.697,941.793 269.651,941.793 243.881,941.793C241.207,941.793 238.642,943.089 236.751,945.396C234.859,947.703 233.797,950.832 233.797,954.095C233.797,954.117 233.797,954.138 233.797,954.159C233.797,960.966 238.32,966.485 243.9,966.485C269.684,966.485 337.703,966.485 363.487,966.485C369.067,966.485 373.59,960.966 373.59,954.159C373.59,954.146 373.59,954.132 373.59,954.118Z" fill="#ffffff" transform="matrix(.9601 0 0 .78698 -191.135 -650.516)"/></g><g id="change2_2"><path d="M373.807,954.118C373.807,947.165 369.187,941.528 363.487,941.528C337.697,941.528 269.651,941.528 243.881,941.528C241.149,941.528 238.529,942.852 236.597,945.209C234.665,947.566 233.58,950.762 233.58,954.095C233.58,954.117 233.58,954.138 233.58,954.159C233.58,961.113 238.201,966.75 243.9,966.75C269.684,966.75 337.703,966.75 363.487,966.75C369.187,966.75 373.807,961.113 373.807,954.159C373.807,954.146 373.807,954.132 373.807,954.118ZM373.373,954.118C373.373,954.132 373.373,954.146 373.373,954.159C373.373,960.82 368.947,966.22 363.487,966.22C337.703,966.22 269.684,966.22 243.9,966.22C238.44,966.22 234.014,960.82 234.014,954.159C234.014,954.138 234.014,954.117 234.014,954.095C234.014,950.903 235.054,947.841 236.904,945.583C238.755,943.326 241.264,942.057 243.881,942.057C269.651,942.057 337.697,942.057 363.487,942.057C368.947,942.057 373.373,947.457 373.373,954.118Z" fill="#9340ff" transform="matrix(.9601 0 0 .78698 -191.135 -650.516)"/></g><g id="change2_3"><path d="M373.477,973.405C373.477,971.817 371.995,970.53 370.167,970.53C368.189,970.53 365.643,970.53 363.665,970.53C361.833,970.53 360.348,971.819 360.348,973.41C360.348,973.46 360.348,973.511 360.348,973.561C360.348,975.148 361.83,976.435 363.658,976.435C365.71,976.435 368.371,976.435 370.378,976.435C372.09,976.435 373.477,975.231 373.477,973.745C373.477,973.632 373.477,973.518 373.477,973.405ZM373.124,973.405C373.124,973.518 373.124,973.632 373.124,973.745C373.124,975.061 371.895,976.129 370.378,976.129C368.371,976.129 365.71,976.129 363.658,976.129C362.025,976.129 360.701,974.979 360.701,973.561C360.701,973.511 360.701,973.46 360.701,973.41C360.701,971.989 362.028,970.837 363.665,970.837C365.643,970.837 368.189,970.837 370.167,970.837C371.8,970.837 373.124,971.986 373.124,973.405Z" fill="#9340ff" transform="matrix(1.18061 0 0 1.35976 -279.752 -1223.332)"/></g><g id="change2_1"><path d="M370.218,972.166L368.878,971.164C368.785,971.095 368.767,970.964 368.835,970.872C368.904,970.78 369.035,970.761 369.127,970.83L370.941,972.185C370.993,972.224 371.024,972.286 371.025,972.351C371.025,972.416 370.995,972.477 370.943,972.517L369.13,973.916C369.038,973.986 368.908,973.969 368.837,973.878C368.767,973.787 368.784,973.656 368.875,973.586L370.177,972.582L360.408,972.582C360.293,972.582 360.2,972.489 360.2,972.374C360.2,972.259 360.293,972.166 360.408,972.166L370.218,972.166Z" fill="#9340ff" transform="translate(-212.185 -872.003)"/></g></g></g></g></svg>